<svg width="1280" height="109" viewBox="0 0 1280 109" fill="none" xmlns="http://www.w3.org/2000/svg">
<path d="M423.051 3.27338C447.997 0.301919 450.514 11.1289 465 28.46C473.839 39.0351 482.203 50.4958 491.097 61.0077C494.264 58.1449 499.882 50.9054 502.811 47.3536C512.553 35.5377 522.102 23.1149 532.027 11.4762C537.142 5.62084 543.336 2.85657 551.114 2.76049C556.194 2.69772 560.273 3.11669 564.896 5.41938C574.125 10.0163 575.659 18.5884 575.68 28.0611C575.732 53.071 575.719 78.1037 575.609 103.109C575.603 104.456 574.91 105.535 574.018 106.474C571.323 108.143 557.972 108.443 555.174 105.574C554.383 104.778 553.878 103.744 553.734 102.631C553.373 99.5915 553.696 85.1428 553.699 81.2301L553.741 33.204C553.9 30.2457 553.284 28.2432 550.79 26.7312C541.352 26.5529 510.93 78.5809 496.398 84.1068C492.165 85.7168 485.154 84.2515 481.51 81.7079C476.758 78.3919 472.869 72.2586 469.277 67.7011C463.742 60.6759 440.777 29.5618 434.815 26.9979C433.307 26.3494 432.743 26.6054 431.326 27.1926C425.768 33.8974 431.836 91.1522 428.934 104.975C426.419 107.957 410.345 108.285 408.533 103.922C407.773 93.1206 407.206 18.6103 408.691 15.6534C412.247 8.57625 415.773 5.76761 423.051 3.27338Z" fill="#F9F9F9"/>
<path d="M973.037 3.24284C984.832 2.93083 992.809 1.44279 991.596 16.5248C991.052 23.2982 991.406 32.2956 991.431 39.1755L991.513 73.555C991.526 80.1473 991.836 88.6364 990.932 95.192C989.914 107.201 968.088 111.55 960.047 106.372C948.511 98.9391 935.768 86.8293 925.269 77.7061L870.478 30.685C868.044 28.6243 868.196 28.4227 865.446 28.6534C860.908 31.4176 862.52 43.1293 862.406 48.0515C861.963 67.2441 863.841 86.9715 861.951 106.022C861.951 106.022 860.415 107.902 860.288 108.059C856.23 108.098 841.881 109.562 841.578 104.103C840.055 76.8275 840.902 49.0003 841.173 21.6503C841.211 17.8662 843.79 12.9148 845.573 9.60688C869.643 -6.06359 884.915 14.1191 902.304 29.185C916.388 41.4207 930.566 53.5413 944.845 65.5444C949.232 69.2687 963.517 83.1681 968.144 83.158C974.661 78.3407 966.084 10.7349 973.037 3.24284Z" fill="#F9F9F9"/>
<path d="M200.62 0.597053C222.799 -0.0476311 219.843 1.90792 220.126 23.3172C220.324 38.3455 219.36 53.3972 220.194 68.5178C220.612 76.0822 225.346 83.9159 233.686 85.0398C247.425 84.9741 263.887 86.5328 277.383 85.4387C291.367 84.3046 324.875 90.596 333.229 78.4912C340.745 67.5981 332.265 10.1427 338.517 2.2856C341.011 1.20002 345.684 1.50646 348.472 1.36184C361.666 0.67752 358.335 16.5374 358.269 25.9348C358.322 38.647 358.448 51.4731 358.316 64.143C358.185 76.7055 356.46 88.4639 346.87 97.498C343.452 100.718 337.361 104.761 332.692 105.445C320.413 107.242 306.047 106.411 293.474 106.457C273.602 106.529 253.917 106.2 234.056 106.117C224.205 106.241 215.158 103.15 208.21 95.6863C194.189 80.6252 198.67 57.7575 198.086 38.9789C197.781 29.2008 198.008 19.8696 197.845 10.1269C197.779 6.15484 197.699 3.37295 200.62 0.597053Z" fill="#F9F9F9"/>
<path d="M634.399 46.2044C646.125 45.3233 663.684 46.0508 675.979 45.9175C698.886 45.9459 721.826 45.8814 744.733 45.9769C752.186 46.0079 757.552 45.8182 757.685 54.7771C757.742 58.7435 757.634 62.6942 757.54 66.6347C747.767 66.8711 648.501 65.6518 646.377 67.775C645.069 69.0829 644.955 70.9533 644.949 72.7099C644.949 76.2206 645.872 81.9797 648.482 84.5366C652.49 88.4556 692.825 86.6668 700.264 86.6503C723.501 86.7028 746.857 86.4538 770.099 86.668C772.445 86.6895 779.025 87.3406 780.637 89.1181C784.208 93.0447 783.077 102.23 782.881 107.311L693.551 107.319C678.311 107.312 663.09 107.557 647.755 107.026C637.427 107.453 623.527 97.8039 624.33 86.4241C625.328 72.3091 618.141 52.4749 634.399 46.2044Z" fill="#F9F9F9"/>
<path d="M1.84261 0.441224C6.71829 0.279848 16.0936 -1.10048 20.0708 2.03084C24.0562 5.16881 21.5069 68.2795 22.5948 78.6517C25.0764 81.5765 28.1105 84.8166 32.1364 85.0587C42.6907 85.694 53.7987 85.3761 64.3801 85.3685L137.226 85.2756C149.295 85.2952 152.9 86.3173 152.256 99.8285C152.14 102.257 152.796 104.006 151.049 105.725C123.476 106.37 95.5726 105.556 67.9698 105.787C53.3145 105.277 37.6041 106.816 23.0726 105.15C10.438 103.188 -0.118688 92.6295 0.0580487 79.6277C0.403431 54.2094 -0.345932 29.1547 0.218096 3.79214C0.245719 2.54904 1.05033 1.33919 1.84261 0.441224Z" fill="#F9F9F9"/>
<path d="M624.804 6.03972C641.106 5.64952 659.285 6.02132 675.751 6.02113L776.749 6.04117C785.415 10.8691 783.26 18.0048 782.874 26.7849L692.439 26.7685C674.399 26.7767 656.308 26.8627 638.274 26.7641C635.398 26.7483 628.912 26.3671 626.972 24.2476C623.508 20.4654 624.62 10.9812 624.804 6.03972Z" fill="#F9F9F9"/>
<path d="M1180.68 62.6563C1193.09 61.9768 1211.56 62.3548 1224.15 62.5665C1230.6 65.911 1240.98 75.3275 1246.88 80.2876L1279.72 107.791C1243.32 110.431 1246.02 107.046 1219.6 84.8413C1194.85 62.0671 1176.52 97.9006 1157.17 107.164C1153.64 108.857 1131.63 107.913 1126.07 107.806C1131.13 102.569 1174.83 65.6777 1180.68 62.6563Z" fill="#F9F9F9"/>
<path d="M1127.21 4.9866C1136.22 4.36593 1148.46 4.70619 1157.73 4.73432C1168.31 11.8824 1184.75 29.6724 1195.87 33.0314C1215.75 39.0408 1230.62 15.0167 1247.86 4.73767C1258.57 4.65853 1269.29 4.7201 1280 4.92244C1275.98 7.75181 1273.18 10.1106 1269.45 13.3109L1243.84 34.5491C1238.88 38.6622 1233.66 43.2861 1228.21 46.75C1226.81 47.6375 1223.4 49.1438 1221.47 49.1324C1208.76 49.061 1193.85 49.9725 1181.44 48.6577C1179.69 48.4725 1175.28 45.9618 1174.46 45.1704C1167.85 38.7317 1129.65 9.06412 1127.21 4.9866Z" fill="#F9F9F9"/>
<path d="M1050.02 3.18746C1053.45 3.07684 1069.29 1.23292 1069.77 7.00145C1069.77 40 1069.34 71.2592 1069.77 102.936C1069.79 104.043 1069.05 105.845 1068.48 106.803C1067.36 107.677 1065.73 108.043 1064.32 108.043C1058.21 108.041 1048 110.544 1047.97 101.581C1047.89 70.0405 1047.59 38.5244 1048.16 7.00146C1048.18 5.50066 1049.05 4.25199 1050.02 3.18746Z" fill="#F9F9F9"/>
</svg>
