<svg width="269" height="275" viewBox="0 0 269 275" fill="none" xmlns="http://www.w3.org/2000/svg">
<path d="M173.5 153C150.267 176.97 162.081 199.949 172.818 210.574C174.28 212.021 176.609 211.891 178.064 210.436L234.18 154.32C235.991 152.509 237.038 150.073 237.106 147.514L238.395 98.9391C238.463 96.4077 239.488 93.9962 241.264 92.1911L263.507 69.5835C266.559 66.4809 266.576 61.5156 263.514 58.4223C254.75 49.5681 239.357 34.2235 221 16.5C199.804 -3.96538 175.881 6.2871 164.026 15.837C162.294 17.2323 162.274 19.7916 163.836 21.375L230.71 89.1717C232.254 90.7368 232.253 93.2467 230.701 94.8036C219.639 105.9 196.528 129.241 173.5 153Z" fill="#FC4C01"/>
<path d="M152.36 95.5C176.331 118.733 199.309 106.919 209.934 96.1821C211.381 94.7196 211.251 92.391 209.796 90.9361L153.68 34.8196C151.869 33.0092 149.433 31.9621 146.874 31.8942L98.2992 30.6046C95.7679 30.5374 93.3563 29.5124 91.5513 27.7364L68.9437 5.49343C65.8411 2.44091 60.8758 2.42391 57.7825 5.48582C48.9282 14.2502 33.5837 29.6435 15.8602 48C-4.60521 69.1963 5.64727 93.1193 15.1972 104.974C16.5924 106.706 19.1518 106.726 20.7352 105.164L88.5319 38.2898C90.097 36.746 92.6068 36.7468 94.1638 38.2989C105.26 49.3612 128.601 72.4724 152.36 95.5Z" fill="#FC4C01"/>
<path d="M95.5 122C118.733 98.0296 106.919 75.0508 96.1821 64.4262C94.7197 62.979 92.391 63.109 90.9362 64.5639L34.8196 120.68C33.0092 122.491 31.9621 124.927 31.8942 127.486L30.6046 176.061C30.5374 178.592 29.5124 181.004 27.7364 182.809L5.49344 205.417C2.44092 208.519 2.42392 213.484 5.48583 216.578C14.2503 225.432 29.6435 240.776 48 258.5C69.1963 278.965 93.1193 268.713 104.974 259.163C106.706 257.768 106.726 255.208 105.164 253.625L38.2898 185.828C36.746 184.263 36.7468 181.753 38.2989 180.196C49.3613 169.1 72.4724 145.759 95.5 122Z" fill="#FC4C01"/>
<path d="M116.64 179.5C92.6694 156.267 69.6907 168.081 59.066 178.818C57.6188 180.28 57.7489 182.609 59.2037 184.064L115.32 240.18C117.131 241.991 119.567 243.038 122.126 243.106L170.701 244.395C173.232 244.463 175.644 245.488 177.449 247.264L200.056 269.507C203.159 272.559 208.124 272.576 211.217 269.514C220.072 260.75 235.416 245.357 253.14 227C273.605 205.804 263.353 181.881 253.803 170.026C252.408 168.294 249.848 168.274 248.265 169.836L180.468 236.71C178.903 238.254 176.393 238.253 174.836 236.701C163.74 225.639 140.399 202.528 116.64 179.5Z" fill="#FC4C01"/>
</svg>
