<svg xmlns="http://www.w3.org/2000/svg" width="269" height="275" fill="none"><path fill="#FC4C01" d="M173.5 153c-23.233 23.97-11.419 46.949-.682 57.574 1.462 1.447 3.791 1.317 5.246-.138l56.116-56.116a10 10 0 0 0 2.926-6.806l1.289-48.575a10 10 0 0 1 2.869-6.748l22.243-22.607c3.052-3.103 3.069-8.068.007-11.162C254.75 49.568 239.357 34.224 221 16.5c-21.196-20.465-45.119-10.213-56.974-.663-1.732 1.395-1.752 3.955-.19 5.538l66.874 67.797a3.995 3.995 0 0 1-.009 5.632C219.639 105.9 196.528 129.24 173.5 153"/><path fill="#FC4C01" d="M152.36 95.5c23.971 23.233 46.949 11.419 57.574.682 1.447-1.462 1.317-3.791-.138-5.246L153.68 34.82a10 10 0 0 0-6.806-2.926l-48.575-1.29a10 10 0 0 1-6.748-2.868L68.944 5.493c-3.103-3.052-8.068-3.07-11.162-.007C48.929 14.25 33.585 29.644 15.86 48c-20.465 21.196-10.213 45.12-.663 56.974 1.395 1.732 3.955 1.752 5.538.19L88.532 38.29a3.996 3.996 0 0 1 5.632.009A6305 6305 0 0 0 152.36 95.5"/><path fill="#FC4C01" d="M95.5 122c23.233-23.97 11.419-46.95.682-57.574-1.462-1.447-3.791-1.317-5.246.138L34.82 120.68a10 10 0 0 0-2.926 6.806l-1.29 48.575a10 10 0 0 1-2.868 6.748L5.493 205.417c-3.052 3.102-3.07 8.067-.007 11.161C14.25 225.432 29.644 240.776 48 258.5c21.196 20.465 45.12 10.213 56.974.663 1.732-1.395 1.752-3.955.19-5.538L38.29 185.828a3.996 3.996 0 0 1 .009-5.632A6300 6300 0 0 0 95.5 122"/><path fill="#FC4C01" d="M116.64 179.5c-23.97-23.233-46.95-11.419-57.574-.682-1.447 1.462-1.317 3.791.138 5.246l56.116 56.116a10 10 0 0 0 6.806 2.926l48.575 1.289a10 10 0 0 1 6.748 2.869l22.607 22.243c3.103 3.052 8.068 3.069 11.161.007 8.855-8.764 24.199-24.157 41.923-42.514 20.465-21.196 10.213-45.119.663-56.974-1.395-1.732-3.955-1.752-5.538-.19l-67.797 66.874a3.996 3.996 0 0 1-5.632-.009A6311 6311 0 0 0 116.64 179.5"/></svg>